<svg xmlns="http://www.w3.org/2000/svg" version="1.1" xmlns:xlink="http://www.w3.org/1999/xlink" xmlns:svgjs="http://svgjs.dev/svgjs" width="2000" height="2375" viewBox="0 0 2000 2375"><g transform="matrix(1,0,0,1,1.601983408748083,0.9633140574978825)"><svg viewBox="0 0 208 247" data-background-color="#ffffff" preserveAspectRatio="xMidYMid meet" height="2375" width="2000" xmlns="http://www.w3.org/2000/svg" xmlns:xlink="http://www.w3.org/1999/xlink"><g id="tight-bounds" transform="matrix(1,0,0,1,-0.16660627450980314,-0.09997365579206985)"><svg viewBox="0 0 208.3332125490196 247.2" height="247.2" width="208.3332125490196"><g><svg viewBox="0 0 208.3332125490196 247.2" height="247.2" width="208.3332125490196"><g><svg viewBox="0 0 208.3332125490196 247.2" height="247.2" width="208.3332125490196"><g id="textblocktransform"><svg viewBox="0 0 208.3332125490196 247.2" height="247.2" width="208.3332125490196" id="textblock"><g><svg viewBox="0 0 208.3332125490196 247.2" height="247.2" width="208.3332125490196"><path d="M207.845 53.02C206.866 27.36 204.075 20.227 204.075 20.227 195.505-6.202 184.81-0.506 175.201 3.292 158.238 3.446 141.343 9.091 124.419 12.119 88.895 12.581 53.068 4.986 17.721 23.717 14.4 29.464-3.445 24.846 0.591 56.304 1.648 69.39 5.507 83.913 5.39 95.922 5.919 98.026 6.653 93.202 6.967 96.23 8.064 104.39 9.856 100.541 11.325 105.365 9.278 118.246 10.747 128.971 12.148 140.21 9.68 143.135 6.516 141.749 5.096 151.449 4.949 158.479 4.156 157.145 3.284 156.837 2.647 156.632 1.364 157.402 1.58 159.608 2.314 167.152-0.839 171.514 1.139 178.904-0.222 186.91 2.079 193.838 1.766 202.511 1.727 204.255 1.942 205.744 2.285 206.154 3.803 208.361 1.59 212.672 1.825 217.342 17.397 249.262 34.292 227.195 50.247 241.872 54.39 231.608 51.276 245.516 52.931 243.36 54.224 240.846 55.164 251.263 56.623 245.362 56.848 243.668 56.506 239.665 57.309 240.435 57.73 240.846 58.102 240.743 58.161 238.382 58.249 234.841 57.475 237.048 57.27 235.201 59.493 225.861 58.944 248.081 61.031 247.158 60.933 244.438 60.325 240.538 61.569 241.051 62.803 237.151 62.842 233.918 63.939 242.693 63.979 244.592 64.174 245.926 64.488 246.85 67.916 237.305 71.324 250.237 74.919 245.926 77.122 241.205 79.238 248.492 81.471 246.696 82.255 245.259 83.048 242.693 83.802 247.004 93.038 247.928 102.881 244.079 111.637 247.158 135.035 241.41 160.04 249.518 184.712 241.923 190.529 238.998 196.572 234.841 202.243 231.506 202.243 231.506 206.837 222.371 206.837 181.316S207.816 145.393 207.963 112.703C208.11 80.013 208.795 78.679 207.816 53.02Z" opacity="1" fill="#0c0a0f" data-fill-palette-color="tertiary"></path><g transform="matrix(1,0,0,1,55.768319999999996,26.230666666666668)"><svg width="96.79657254901961" viewBox="4 -33.25 16.9 34" height="194.73866666666666" data-palette-color="#ffffff"><path d="M20.9-6.25L20.9-6.25Q20.9 0.75 12.45 0.75 4 0.75 4-6.25L4-6.25 4-10.5 7.5-10.5 7.5-6.05Q7.5-4.25 8.75-3.25 10-2.25 12.45-2.25 14.9-2.25 16.15-3.25 17.4-4.25 17.4-5.98 17.4-7.7 17.03-8.72 16.65-9.75 15.5-10.9L15.5-10.9 6.7-19.5Q5.15-21.05 4.58-22.53 4-24 4-26.25L4-26.25Q4-29.6 6.08-31.43 8.15-33.25 12.35-33.25L12.35-33.25Q20.4-33.25 20.4-26.25L20.4-26.25 20.4-22 16.9-22 16.9-26.45Q16.9-28.25 15.73-29.25 14.55-30.25 12.2-30.25 9.85-30.25 8.68-29.25 7.5-28.25 7.5-26.5 7.5-24.75 7.85-23.75 8.2-22.75 9.4-21.65L9.4-21.65 18.35-13.05Q19.8-11.45 20.35-9.98 20.9-8.5 20.9-6.25Z" opacity="1" transform="matrix(1,0,0,1,0,0)" fill="#ffffff" class="wordmark-text-0" data-fill-palette-color="quaternary" id="text-0"></path></svg></g></svg></g></svg></g></svg></g><g></g></svg></g><defs></defs></svg><rect width="208.3332125490196" height="247.2" fill="none" stroke="none" visibility="hidden"></rect></g></svg></g></svg>